<svg version="1" xmlns="http://www.w3.org/2000/svg" width="1365.333" height="1365.333" viewBox="0 0 1024.000000 1024.000000"><path d="M85.7 1C72.5 3.3 57.6 9.2 46.5 16.5c-22.3 14.8-35.3 33-43.8 61l-2.2 7-.3 424C0 893.4.1 933.2 1.5 940.5c3.3 15.9 9.5 29.9 19.2 43 13.5 18.3 35.6 32.7 58.3 38.2 7.2 1.7 26 1.8 433 1.8s425.8-.1 433-1.8c10.4-2.5 23-8 32.5-14.2 22.3-14.6 36.4-34.5 44.2-62.5 1.7-6.2 1.8-24.7 1.8-433s-.1-426.8-1.8-433c-4.4-15.7-9.9-27.2-18.7-38.8-13.3-17.7-30.7-29.4-54.5-36.9l-9-2.8L515 .4C281.5.3 88.3.6 85.7 1zM186 364c11.8 2.6 18.7 7.6 23.1 16.5 2.6 5.3 3.2 8 3.7 15.4.7 13.9-2.5 31.3-8.7 46.9L202 448l2.5 1.2c3 1.4 2.2 2.2 11.7-12.2 25.5-38.5 54.9-62 88.5-70.6 13.5-3.5 32.5-4.3 44.3-2 34.2 6.7 47.6 32.5 39 74.8-1.1 5.1-1.8 9.4-1.6 9.5.2.2 1.5.5 2.8.6 2.2.2 3.6-1.5 10.5-11.8 10.9-16.4 18.3-25.4 31.1-37.6 16.1-15.4 31.1-24.9 49-30.9 23.6-7.9 51-8 67.7-.1 18.1 8.4 26.6 24.6 26.7 51.1 0 18.8-3.4 39.3-15.6 93.5-14.4 63.6-16 97.1-5.6 119.3l3 6.3-2.8 2.5c-4.8 4.3-15.9 11.4-22.4 14.3-13 5.9-28.2 7.5-43.2 4.7-15.7-3.1-26.3-10.8-32.5-24-10.4-21.8-9-46.4 5.9-102.6 11.5-43.3 16-64.5 16-74.9 0-6.8-2.5-14.2-5.9-17.5-7-6.7-20.9-4.9-36.3 4.7-21.6 13.6-42.2 38.4-54.1 65.2-13.6 30.7-19.9 64.1-17.6 93.9 1 12.7 2.8 20.8 6.6 28.5l2.6 5.3-2.9 2.4c-15.3 12.8-30 19.1-46.9 20.1-37.6 2.1-57.5-17.6-57.8-57.2 0-9.4.6-16.6 2.3-26 2.1-12.2 3.9-19.5 17.3-72.5 9.2-35.9 10.6-51.3 5.8-60.7-2.7-5.5-6.9-7.7-14.1-7.6-14.8.3-30 9.2-48.7 28.7-19.8 20.5-34 47.1-42.3 79.2-8.3 31.8-8.1 70.5.4 87.4 1.4 2.8 2.6 5.5 2.6 5.9 0 1.6-12.2 10.3-20.2 14.5-12.6 6.7-18.2 8-32.8 8.1-19.1 0-30.7-3.9-40.1-13.6-12.7-13-16.7-35.7-12.4-69.7 3.6-27.8 14.4-87.6 23.4-128.6l4.8-22-12.3-18.8c-6.8-10.4-12.4-19-12.4-19.2 0-.2 6-3.3 13.3-6.9 19.4-9.7 42.5-17 59.7-19 7.2-.8 22.7-.6 27 .3zm546.7 1.5c11.6 3.9 17.3 12.7 18.1 27.6.6 12.2-2.2 30.1-14.3 90.4-15.7 78.5-16.9 89.2-11 102.3 4.9 11 13.8 17.1 26.5 17.9 9.3.7 16.1-.8 25-5.2 13.8-6.9 24.8-17.5 33.6-32.2 3.6-6 4.4-8.7 7.3-23.3 4.3-22.1 8.9-43.8 16.7-77.9 3.6-15.6 6.3-29 6-29.6-.2-.6-6.6-9.4-14.1-19.4-7.5-10.1-13.3-18.7-12.8-19.1 2.9-2.8 21.6-14 30.8-18.5 32.4-16 69.6-20.3 86.9-10.1 7.9 4.6 12.6 14.4 12.6 26 0 11-5.7 41.1-17.4 92.1-6.8 29.8-11.8 55.7-14.7 75.7-2.9 19.4-3.1 43-.6 53.1 1.7 6.9 6.1 16.2 9.9 20.9 2.7 3.4 2.2 4.1-8.6 11.2-15.2 10-29.5 14.6-45.8 14.6-32.2 0-50.7-14.1-53.4-40.7-.6-5.2-1-6.3-3.2-7.4-2.3-1.3-2.6-1.2-5.1 2.1-24.7 32.9-74.7 51.4-120.4 44.5-18.4-2.8-29.5-8.1-39.1-18.7-9.1-10-14.7-23.9-16.7-41.3-2.1-17.7 1.4-52.4 9.6-95.6 8.5-45.1 11-66 10.2-84.8-.5-13.1-2.7-22.8-6.8-29.4-1-1.8-1.9-3.6-1.9-4 0-1.5 24.4-12.6 36.5-16.6 6.6-2.2 15.6-4.7 20-5.5 10.5-2 29-1.5 36.2.9z"/></svg>