<svg version="1" xmlns="http://www.w3.org/2000/svg" width="933.333" height="933.333" viewBox="0 0 700.000000 700.000000"><path d="M71.8 1.6C37.8 7.7 10.3 34.1 2.3 68 .6 75.1.5 90.9.5 350s.1 274.9 1.8 282c7.5 31.7 31.9 56.8 63.8 65.3l8.4 2.2h551l8.4-2.2c31.9-8.5 56.3-33.6 63.8-65.3 1.7-7.1 1.8-22.9 1.8-282s-.1-274.9-1.8-282c-7.4-31.5-31.3-56.2-63.3-65.2L626.5.5 353 .3C123 .2 78.3.4 71.8 1.6zm360.7 65.7c29.1 5.5 53.5 15.4 78 31.5 25.8 16.9 46.3 37.3 62.5 62.4 15.1 23.3 25 51.3 22.6 64.1-.4 2.4-2.8 5.9-7.3 10.9-3.6 4-7.8 9.8-9.2 12.8-2.6 5.5-2.6 5.5-3.2 40.5-.9 43.7-3.3 65.2-11 96-17.3 69.3-50.9 130.3-97.4 177.1-40.4 40.6-84.7 64.9-133 73-13.6 2.3-40.2 2.3-55.8 0-72.4-10.5-133.6-55.8-166.3-123.1-16.7-34.3-24.4-69.4-23.1-105 .9-23.4 3.4-28.6 15.4-32.1 4.6-1.3 5.7-1.4 6.4-.3.7 1.1.9 1 .9-.3 0-1 1.6-2.6 3.9-3.7 9-4.6 12.6-12.2 18.6-38.7 8.9-39.9 17.7-65.7 33.2-97.1C213.9 141.4 291.7 77.2 373 66c10-1.3 50.1-.5 59.5 1.3z"/><path d="M366.9 113.6c-17.8 3.2-37.1 12.3-44.7 21.1-6.9 8-8.2 9.1-21 17.5-6.7 4.4-12.5 8.5-12.9 9.2-.4.6.6.2 2.2-.8 5.1-3.4 19.9-11.4 24.2-13.1 3.1-1.3 4.6-1.4 6.2-.6 3 1.6 13.7 1.3 34.2-1 25.4-2.9 56-3.1 64.4-.6 8.7 2.7 13.2 5.3 19.2 11 13.6 12.9 22.4 31.2 25.8 53.7 4.8 31.7-3.6 69.7-22.8 102.2-6.4 10.8-15.3 22.4-21.5 28-8.2 7.3-8.1 5.1.2-14.6 7.2-17 11.7-30.6 14.9-44.6 3-13.3 3.1-43.8.3-55-7.1-27.6-22-44.7-46.1-52.7-7.4-2.5-9.3-2.7-24.5-2.7-13.7.1-17.8.4-24.2 2.2-36.1 9.9-64.7 33.2-93.2 76.2-16 24.1-32.3 54.5-40.5 75.4-15.1 38.5-23 92.8-20.2 137.6 2.3 35.8 8.6 60.8 19.7 77.6 11.4 17.3 35.6 34.3 57 39.9 8.6 2.3 21.4 2.2 26.1-.1 3-1.5 5-1.8 9.3-1.2 7.3.8 24.3.8 30.5-.1 3.9-.5 1.7-.8-10-1.3-18.1-.7-25.1-2.1-25.9-5.4-.3-1.2-5-6.2-10.4-11.1-30.9-27.9-36.6-37.4-36.5-60.3.1-46 38.7-87.4 84.3-90.6 19.6-1.4 34.2 5.3 41 18.8 2.6 5.2 3 7.2 3 13.9 0 18.1-8.1 31.6-29.9 49.8-13.6 11.3-19.1 18.4-19.1 24.4 0 1.7-.7 2.7-2.2 3.2l-2.3.7 2.3.6c1.2.4 3.1 1.9 4.1 3.5 11.2 17.2 50.1 10.6 82.9-14.1 56-42.1 95.8-117.9 106.9-203.7 2.7-21.4 2.5-69.8-.5-89-2.7-17.6-6.3-31-10.7-40-9.2-19.2-28.3-36.5-53-48.1-12.6-5.9-33.6-13-45.6-15.4-11.5-2.4-29.4-2.5-41-.4z"/></svg>